# xmcd CD database file
#
# Track frame offsets:
#	150
#	34837
#	56240
#	71113
#	75490
#	83835
#
# Disc length: 1262 seconds
#
# Revision: 0
# Processed by: cddbd v1.5.1PL2 Copyright (c) Steve Scherf et al.
# Submitted via: CDex 1.51
#
DISCID=4a04ec06
DTITLE=COA - CUT UP
DYEAR=2003
DGENRE=Hardcore
TTITLE0=BITTER COLD
TTITLE1=BARAO WAS FRIGHTENED
TTITLE2=MAN IN HIS PARENTS'S HOUSE
TTITLE3=MAN IN THE PARK 2
TTITLE4=THE SIGHT GAVE HIM GOOSE FLESH
TTITLE5=CELL DIVISON 2
EXTD=YEAR: 2003
EXTT0=
EXTT1=
EXTT2=
EXTT3=
EXTT4=
EXTT5=
PLAYORDER=
